 <svg  version="1.0" xmlns="http://www.w3.org/2000/svg"  width="900.000000pt" height="900.000000pt" viewBox="0 0 900.000000 900.000000"  preserveAspectRatio="xMidYMid meet">  <g transform="translate(0.000000,900.000000) scale(0.100000,-0.100000)" fill="#1c1c1c" stroke="none"> <path d="M4155 6589 c-120 -8 -214 -22 -390 -58 -192 -40 -522 -169 -685 -269 -19 -12 -45 -26 -58 -32 -12 -5 -28 -14 -35 -20 -6 -6 -48 -34 -92 -62 -44 -29 -82 -54 -85 -58 -3 -3 -18 -14 -34 -24 -42 -27 -241 -200 -311 -270 -33 -34 -85 -90 -115 -126 -30 -36 -58 -67 -61 -70 -10 -9 -124 -164 -161 -220 -55 -82 -130 -224 -199 -375 -19 -44 -77 -203 -93 -260 -9 -33 -21 -73 -26 -90 -10 -31 -26 -122 -40 -215 -11 -73 -11 -461 0 -530 21 -128 29 -170 39 -202 6 -18 20 -67 32 -108 12 -41 26 -82 30 -90 4 -8 16 -33 25 -55 99 -236 260 -479 430 -649 181 -180 313 -275 524 -377 117 -57 114 -56 285 -109 17 -5 59 -14 95 -20 36 -6 92 -16 125 -22 33 -6 143 -11 245 -11 151 0 203 4 283 21 151 33 165 38 361 132 153 73 161 77 248 101 114 32 222 23 337 -28 19 -9 74 -40 123 -69 48 -29 111 -63 140 -75 29 -11 62 -25 73 -29 144 -58 377 -88 557 -72 191 17 420 65 490 103 10 5 23 9 29 9 11 0 35 10 149 63 331 153 688 507 849 842 57 118 57 120 81 195 35 111 38 123 49 183 6 32 13 62 15 66 3 4 10 90 17 190 11 187 0 511 -21 604 -5 23 -14 71 -20 107 -32 179 -26 157 -86 343 -21 65 -42 121 -46 123 -5 3 -8 11 -8 19 0 30 -154 328 -202 390 -4 6 -41 55 -81 110 -140 191 -311 362 -502 502 -55 40 -104 77 -110 81 -50 39 -240 140 -350 186 -22 10 -49 21 -60 26 -11 5 -51 18 -90 31 -38 12 -79 26 -90 30 -11 4 -60 18 -110 29 -49 12 -108 26 -130 31 -120 29 -485 64 -820 79 -244 11 -357 11 -520 -1z m495 -239 c430 -29 860 -94 1135 -173 155 -44 400 -171 520 -268 248 -202 367 -330 529 -568 73 -107 150 -247 196 -356 11 -27 25 -58 30 -67 6 -10 10 -23 10 -30 0 -7 6 -25 14 -40 8 -15 17 -41 21 -59 4 -19 11 -40 16 -49 20 -39 58 -218 74 -355 22 -189 16 -456 -15 -595 -28 -125 -54 -226 -60 -235 -4 -5 -11 -26 -15 -45 -4 -19 -11 -41 -16 -50 -11 -20 -49 -108 -49 -113 0 -3 -21 -42 -46 -87 -88 -159 -217 -317 -348 -427 -45 -37 -83 -70 -86 -74 -3 -3 -46 -33 -97 -68 -441 -298 -876 -306 -1255 -25 -91 68 -128 106 -128 131 0 8 16 54 36 101 20 48 43 105 51 127 9 22 22 54 29 72 8 17 14 34 14 37 0 3 11 29 24 58 14 29 36 81 50 115 22 54 44 103 86 198 5 11 22 49 38 85 16 36 40 88 52 115 12 28 33 75 47 105 14 30 31 69 38 85 26 59 101 225 142 315 14 30 31 69 38 85 44 100 73 161 136 293 39 81 90 185 113 232 24 47 46 97 50 112 9 38 -8 73 -41 86 -62 25 -187 42 -304 42 -106 0 -128 -3 -167 -22 -53 -27 -106 -85 -133 -148 -11 -25 -26 -58 -34 -75 -53 -114 -75 -167 -75 -178 0 -7 -4 -17 -9 -23 -4 -5 -16 -34 -26 -64 -15 -48 -30 -86 -65 -165 -5 -11 -48 -112 -96 -225 -48 -113 -98 -230 -111 -260 -14 -30 -37 -82 -51 -115 -38 -84 -212 -428 -251 -495 -18 -30 -37 -67 -44 -82 -19 -45 -37 -37 -103 47 -21 28 -41 52 -44 55 -3 3 -30 37 -60 75 -30 39 -57 72 -60 75 -5 5 -153 188 -250 309 -24 31 -54 67 -66 80 -13 13 -31 39 -40 57 -17 31 -17 34 -1 52 13 14 42 23 100 31 132 18 198 31 218 41 10 6 25 10 34 10 36 0 203 82 270 133 159 119 300 312 395 542 5 11 15 36 23 55 8 19 25 64 37 100 12 36 25 72 30 80 4 9 11 31 15 50 4 19 11 41 16 50 27 53 43 136 47 255 3 112 1 138 -16 188 -54 151 -196 256 -392 288 -66 11 -514 38 -771 46 -152 4 -199 2 -259 -11 -155 -36 -201 -82 -304 -308 -14 -31 -26 -63 -26 -70 0 -8 -4 -18 -8 -23 -5 -6 -20 -39 -32 -75 -13 -36 -30 -76 -37 -90 -7 -14 -13 -32 -13 -40 0 -9 -4 -20 -8 -25 -5 -6 -19 -39 -32 -75 -13 -36 -26 -69 -30 -75 -4 -5 -15 -32 -25 -60 -16 -45 -40 -103 -65 -160 -5 -11 -19 -45 -30 -75 -12 -30 -26 -64 -30 -75 -37 -88 -52 -123 -60 -140 -5 -11 -19 -45 -30 -75 -12 -30 -26 -64 -30 -75 -5 -11 -19 -45 -30 -75 -12 -30 -26 -64 -30 -75 -5 -11 -17 -40 -28 -65 -10 -25 -25 -61 -32 -80 -7 -19 -21 -53 -30 -75 -9 -22 -25 -60 -34 -85 -10 -25 -22 -54 -27 -65 -4 -11 -18 -45 -29 -75 -25 -63 -31 -77 -59 -142 -12 -26 -21 -52 -21 -58 0 -5 -4 -18 -10 -28 -10 -19 -40 -89 -60 -142 -7 -19 -21 -53 -30 -75 -9 -22 -24 -60 -34 -85 -10 -25 -22 -53 -27 -62 -22 -42 -2 -67 64 -79 23 -5 67 -13 97 -19 73 -15 248 -16 282 -2 49 20 106 91 154 190 60 125 72 152 119 267 9 22 23 54 30 70 33 73 57 127 98 224 71 166 83 163 232 -39 105 -144 134 -182 153 -205 5 -6 26 -35 47 -65 21 -30 42 -59 47 -65 26 -31 459 -617 467 -634 19 -35 12 -50 -46 -109 -236 -239 -565 -327 -938 -252 -495 100 -927 445 -1159 925 -141 291 -201 604 -176 920 12 149 46 330 69 375 5 9 12 30 16 49 4 18 13 44 21 59 8 15 14 35 14 44 0 9 4 19 9 22 5 3 12 18 16 33 17 70 167 354 244 464 15 20 33 47 41 59 8 12 20 28 26 34 6 6 15 19 20 28 42 75 341 370 444 438 12 8 28 20 34 25 52 47 370 225 401 225 4 0 21 6 38 14 121 54 380 120 577 147 184 26 488 34 710 19z m-140 -836 c39 -7 94 -62 129 -128 58 -110 64 -260 15 -355 -8 -14 -14 -32 -14 -39 0 -7 -4 -20 -9 -30 -6 -9 -19 -46 -31 -82 -59 -184 -107 -294 -187 -427 -88 -147 -161 -197 -368 -250 -102 -26 -464 -26 -512 0 -26 14 -33 24 -33 47 0 17 4 38 10 48 13 23 43 95 66 157 10 28 24 61 31 75 7 14 13 31 13 38 0 7 4 20 10 30 10 19 40 89 60 142 13 34 42 105 60 145 5 11 19 45 31 75 12 30 32 78 44 105 13 28 33 73 45 100 59 135 153 312 175 327 13 10 54 22 92 27 64 9 318 5 373 -5z"/> <path d="M5825 5664 c-80 -30 -136 -110 -162 -234 -27 -128 -27 -145 -3 -178 19 -25 33 -32 94 -42 39 -7 113 -15 165 -17 107 -6 155 9 205 62 27 29 96 157 96 179 0 6 7 25 16 41 9 17 18 53 21 80 4 44 2 53 -20 73 -32 30 -104 43 -252 47 -88 3 -131 -1 -160 -11z"/> </g> </svg> 
